HIERARCHY
ROOT Hips
{
  OFFSET -331.093 83.8371 -317.828
  CHANNELS 6 Xposition Yposition Zposition Zrotation Xrotation Yrotation
  JOINT LeftUpLeg
  {
    OFFSET 8.64259 1.95398 -2.38835
    CHANNELS 3 Zrotation Xrotation Yrotation
    JOINT LeftLeg
    {
      OFFSET 43.7702 0 0
      CHANNELS 3 Zrotation Xrotation Yrotation
      JOINT LeftFoot
      {
        OFFSET 40.6238 0 0
        CHANNELS 3 Zrotation Xrotation Yrotation
        JOINT LeftToeBase
        {
          OFFSET 12.7242 0 0
          CHANNELS 3 Zrotation Xrotation Yrotation
          End Site
          {
            OFFSET 0 0 0
          }
        }
      }
    }
  }
  JOINT RightUpLeg
  {
    OFFSET -8.2249 1.95398 -2.59336
    CHANNELS 3 Zrotation Xrotation Yrotation
    JOINT RightLeg
    {
      OFFSET 43.5653 0 0
      CHANNELS 3 Zrotation Xrotation Yrotation
      JOINT RightFoot
      {
        OFFSET 40.6238 0 0
        CHANNELS 3 Zrotation Xrotation Yrotation
        JOINT RightToeBase
        {
          OFFSET 12.7242 0 0
          CHANNELS 3 Zrotation Xrotation Yrotation
          End Site
          {
            OFFSET 0 0 0
          }
        }
      }
    }
  }
  JOINT Spine
  {
    OFFSET 0.165834 0.87714 6.61349
    CHANNELS 3 Zrotation Xrotation Yrotation
    JOINT Spine1
    {
      OFFSET 7.38963 1.71661e-005 0
      CHANNELS 3 Zrotation Xrotation Yrotation
      JOINT Spine2
      {
        OFFSET 11.9445 1.14441e-005 0
        CHANNELS 3 Zrotation Xrotation Yrotation
        JOINT Spine3
        {
          OFFSET 14.7254 4.19617e-005 0
          CHANNELS 3 Zrotation Xrotation Yrotation
          JOINT Spine4
          {
            OFFSET 10.9679 0 0
            CHANNELS 3 Zrotation Xrotation Yrotation
            JOINT RightShoulder
            {
              OFFSET 2.46616 -1.6653 3.69651
              CHANNELS 3 Zrotation Xrotation Yrotation
              JOINT RightArm
              {
                OFFSET 13.0012 0 0
                CHANNELS 3 Zrotation Xrotation Yrotation
                JOINT RightForeArm
                {
                  OFFSET 28.7848 1.62311e-005 0
                  CHANNELS 3 Zrotation Xrotation Yrotation
                  JOINT RightHand
                  {
                    OFFSET 26.5688 1.62095e-005 0
                    CHANNELS 3 Zrotation Xrotation Yrotation
                    End Site
                    {
                      OFFSET 0 0 0
                    }
                  }
                }
              }
            }
            JOINT LeftShoulder
            {
              OFFSET 2.38034 -1.29275 -3.7523
              CHANNELS 3 Zrotation Xrotation Yrotation
              JOINT LeftArm
              {
                OFFSET 16.3182 6.07031e-005 0
                CHANNELS 3 Zrotation Xrotation Yrotation
                JOINT LeftForeArm
                {
                  OFFSET 27.0901 0 0
                  CHANNELS 3 Zrotation Xrotation Yrotation
                  JOINT LeftHand
                  {
                    OFFSET 24.5451 1.51738e-005 0
                    CHANNELS 3 Zrotation Xrotation Yrotation
                    End Site
                    {
                      OFFSET 0 0 0
                    }
                  }
                }
              }
            }
            JOINT Neck
            {
              OFFSET 5.0226 -0.0266342 0
              CHANNELS 3 Zrotation Xrotation Yrotation
              JOINT Head
              {
                OFFSET 6.69364 2.86102e-005 0
                CHANNELS 3 Zrotation Xrotation Yrotation
                End Site
                {
                  OFFSET 0 0 0
                }
              }
            }
          }
        }
      }
    }
  }
}
MOTION
Frames:	16
Frame Time:	0.0416667
-7.33705 99.2711 -88.6461 -78.8491 -84.7926 -78.0491 -174.624 4.96023 93.4056 -12.5049 6.32829 0.420941 65.5957 3.18055 0.452837 29.3392 1.32286 3.94393 171.754 4.52414 88.2374 -11.9754 -10.9367 -2.69574 65.5693 -2.95426 -1.61006 29.9056 -0.471096 -3.52384 0.000767465 6.75415 -89.9206 13.3655 0.0397014 0.153979 1.69456 0.0467298 0.152062 -20.8405 -0.00813641 0.158879 -0.827877 -0.00813655 0.158871 90.7773 -40.4721 -101.556 35.3702 -16.4457 1.56147 -10.2351 -15.8722 -39.4283 -2.61577 -0.246867 1.26049 -98.4427 -51.2935 67.2362 -21.4068 13.6306 0.0505729 4.77811 17.9456 -31.5743 14.7257 1.01292 2.96058 -0.53776 0.94979 4.5342 0.813247 0.272936 -2.208 
-7.36513 99.2646 -88.6424 -78.6653 -84.6778 -77.6658 -174.16 5.06118 93.8172 -12.5028 7.21219 -0.0207906 65.5309 3.49216 1.12438 29.6906 1.55829 3.75856 171.822 4.499 88.4398 -11.9053 -10.9877 -2.63728 65.5294 -2.9677 -1.6162 29.7705 -0.496951 -3.77998 0.00725117 6.75387 -89.9526 13.3661 0.0367944 0.0901602 1.69515 0.0412882 0.0884228 -20.84 0.00852264 0.0972113 -0.827334 0.00853071 0.0972219 90.724 -40.4643 -101.65 35.206 -16.633 1.4728 -9.69569 -15.382 -38.9385 -2.85554 -0.251968 0.851662 -98.4852 -51.3762 67.2034 -21.4579 13.4516 0.301287 5.10284 17.994 -32.0527 14.4025 1.02974 3.21638 -0.509233 1.09208 3.54113 1.08956 0.582284 -0.642888 
-7.37115 99.2665 -88.5561 -80.827 -84.7178 -79.5129 -173.771 5.01841 94.26 -12.7561 7.42599 -0.259326 65.7029 3.56207 1.32527 29.6923 1.83328 4.88291 171.856 3.94197 88.6862 -11.3722 -11.2103 -2.56389 65.5148 -3.08171 -1.66939 29.4711 -0.562551 -4.42722 0.0166724 6.7935 -89.9777 13.2869 0.043927 0.0391141 1.61591 0.0456103 0.0371297 -20.9193 0.0301432 0.0505052 -0.906595 0.0301367 0.050493 90.77 -40.4795 -101.567 35.2964 -16.6416 1.29524 -9.67767 -15.3085 -39.4045 -3.38447 -0.292048 1.98469 -98.4297 -51.2562 67.2419 -21.3031 13.8538 0.192713 4.86469 17.6707 -32.0285 14.5843 1.00371 2.95879 -0.500617 1.12192 4.10354 0.909434 0.514958 -1.53846 
-7.4291 99.2704 -88.5061 -82.933 -84.5901 -81.4204 -173.447 4.87508 94.5829 -12.834 8.01482 -0.492468 65.6038 3.80788 2.12326 29.9187 2.08209 5.1413 171.974 3.77503 88.8896 -11.5417 -11.3236 -2.56916 65.5696 -3.17296 -1.7155 29.2607 -0.600771 -4.83739 0.0358149 6.82282 -89.9908 13.2282 0.0755569 0.00894943 1.55728 0.0758699 0.00560291 -20.9779 0.0693639 0.0312401 -0.965236 0.0693661 0.031232 90.832 -40.5702 -101.436 35.1858 -16.896 1.19701 -9.24745 -14.6413 -39.7744 -3.50237 -0.298889 2.47135 -98.1857 -51.0264 67.5144 -21.4324 14.1321 0.168969 4.69551 16.8513 -32.4279 14.2128 1.09667 3.76773 -0.262067 1.21395 4.05549 0.478545 0.606517 -1.66263 
-7.5596 99.2556 -88.5103 -80.3347 -84.4587 -78.8326 -173.356 5.12785 94.7248 -12.7854 8.23114 -0.605619 65.2788 3.84388 2.66701 30.7985 2.38767 3.54913 172.21 4.35305 89.0636 -12.1857 -11.1395 -2.63115 65.8777 -3.34619 -1.80458 29.0203 -0.59357 -4.89799 0.0459364 6.79986 -89.9723 13.2741 0.104527 0.0423814 1.60318 0.106296 0.0377399 -20.932 0.0869564 0.0718412 -0.919356 0.0869588 0.0718463 90.7668 -40.7797 -101.491 35.2867 -16.8706 1.38986 -9.84988 -14.9744 -40.1142 -3.60775 -0.309286 2.54915 -97.9943 -50.7862 67.7086 -21.6331 14.2402 0.149506 4.80344 16.5217 -32.7918 13.8934 1.24183 4.93293 -0.190384 1.20614 3.51012 0.421184 0.686459 -0.983501 
-7.76763 99.2634 -88.5565 -81.866 -84.5486 -80.4573 -173.397 5.06552 94.8419 -12.9968 8.11877 -0.444833 65.4861 3.85957 2.4973 30.5551 1.899 2.3725 172.337 4.61943 89.1333 -13.0547 -10.8767 -2.69117 66.0503 -3.45748 -1.86314 29.4725 -0.664422 -5.25168 0.0251235 6.81905 -89.948 13.2357 0.0749893 0.0946962 1.56479 0.0790864 0.0913006 -20.9703 0.0430548 0.112855 -0.957696 0.043058 0.112848 90.7072 -40.8147 -101.582 35.5393 -16.7143 1.54534 -10.1371 -15.2149 -40.0141 -3.62348 -0.30815 2.29959 -97.7731 -50.6262 67.9746 -21.7307 14.1948 0.293814 5.33985 17.131 -33.1766 13.3512 1.27032 5.46785 -0.239619 1.26272 3.58313 0.458808 0.732613 -1.02155 
-8.11481 99.1831 -88.6485 -87.5535 -84.5566 -86.2052 -172.965 4.19207 95.1704 -12.3254 8.64017 -0.678572 65.8816 4.70029 2.96718 29.6614 1.08414 1.86371 172.675 5.10163 89.3743 -15.138 -10.467 -2.90215 66.9715 -3.82747 -2.05531 28.9286 -0.725646 -6.04417 0.0250011 6.8792 -89.9146 13.1154 0.0907916 0.159793 1.44446 0.0977377 0.155632 -21.0906 0.0385647 0.179688 -1.07798 0.0385709 0.179686 90.6755 -40.9107 -101.61 35.8647 -16.5516 1.75412 -9.77399 -14.6825 -39.9981 -3.79352 -0.314013 2.23436 -97.6188 -50.4481 68.1381 -21.6593 14.3837 0.635434 6.01946 17.6289 -34.001 12.5993 1.28176 6.04204 -0.474548 1.24914 3.28736 0.791868 0.7654 -0.950992 
-8.55885 99.139 -88.7091 -90.1406 -84.6756 -88.7277 -172.775 3.96969 95.587 -12.2211 9.09631 -0.650528 65.8793 5.04105 3.38271 29.8461 1.04958 1.11964 173.139 5.72059 89.8252 -16.9588 -9.73142 -3.04232 67.4895 -4.04816 -2.16923 28.8677 -0.798746 -6.69652 0.00831775 6.91139 -89.8811 13.0509 0.0737331 0.228711 1.37996 0.0837304 0.225236 -21.155 0.00158043 0.240294 -1.14239 0.0015896 0.240299 90.7155 -41.1584 -101.475 36.1244 -16.4985 2.09376 -9.35185 -13.1791 -41.1231 -3.92683 -0.325995 2.86928 -97.3626 -50.1154 68.3994 -21.6174 14.4904 0.688539 5.84748 17.1257 -34.0668 12.5506 1.12537 4.89048 -0.460495 1.32579 2.8073 0.805812 0.91428 -0.589361 
-9.02746 99.0551 -88.7413 -93.0231 -84.5418 -91.2542 -172.889 3.81028 96.0345 -12.4477 9.32963 -0.179065 65.6429 5.25571 4.0904 31.0479 2.11405 1.71439 173.709 6.20927 90.5426 -18.6435 -9.22129 -3.07373 67.8606 -4.27477 -2.28181 29.112 -0.925608 -7.5832 0.0152975 6.95041 -89.8771 12.9729 0.0893707 0.234837 1.30193 0.0996161 0.230669 -21.2331 0.0146592 0.250846 -1.2204 0.0146533 0.250833 90.8757 -41.0639 -101.228 36.7688 -16.5212 2.4282 -8.49133 -12.5319 -40.7089 -6.02151 -0.456936 2.84893 -96.8552 -49.5485 68.9533 -21.8715 15.0452 0.754322 6.6523 17.1462 -35.623 11.4641 1.09577 5.3835 -0.33264 1.40784 2.44664 0.734498 1.04683 -0.371362 
-9.82436 98.981 -88.7786 -95.7371 -84.9582 -93.4264 -172.703 4.31272 97.0607 -13.5803 9.07435 0.174541 66.2425 4.92326 2.5926 31.7998 3.111 3.2731 174.304 6.77555 91.5531 -20.4974 -8.26264 -2.94544 68.09 -4.38433 -2.34382 30.6337 -1.15577 -8.32958 0.00962384 6.99737 -89.8701 12.879 0.0814156 0.249787 1.20801 0.092332 0.245957 -21.327 0.00257741 0.262703 -1.31432 0.00258358 0.262706 91.2617 -40.9977 -100.588 37.4887 -16.5081 2.70289 -7.14624 -10.6915 -40.8859 -8.71269 -0.617375 2.71927 -96.9092 -48.9027 68.6627 -21.5053 15.1087 0.667723 8.15755 17.2893 -37.8583 9.43965 1.07715 6.87446 -0.0889462 1.21419 1.62698 0.486278 0.966472 -0.299331 
-10.7234 98.8637 -88.9595 -98.1844 -85.5352 -95.3358 -172.44 5.49811 98.2477 -15.4791 9.69933 0.340307 66.4988 4.29719 1.26425 33.1602 4.48417 4.25241 174.725 7.44124 92.555 -22.2415 -7.12936 -2.60075 68.7063 -4.76696 -2.5278 32.7882 -1.36099 -8.37158 0.00259567 7.07206 -89.8593 12.7296 0.0724665 0.272762 1.05863 0.0844057 0.269305 -21.4763 -0.012859 0.281935 -1.46365 -0.0128571 0.281931 91.2085 -40.9157 -100.7 38.2551 -15.5434 3.7186 -5.83915 -7.89941 -42.2371 -10.0148 -0.713428 3.02842 -96.6874 -48.4139 68.8287 -20.3822 14.2357 -0.524648 9.26678 16.2892 -39.8433 6.50156 0.708814 5.79657 0.547233 1.04996 1.51059 0.385812 0.793799 -1.18479 
-11.8023 98.6311 -89.3714 -101.682 -86.9131 -98.107 -172.024 7.51051 99.854 -17.7114 12.0302 0.251575 66.4156 4.39344 1.41993 34.3303 5.55438 4.63106 175.03 8.56911 93.7858 -24.79 -5.84794 -2.10528 69.6556 -5.19374 -2.7367 34.9433 -1.43886 -7.68342 -0.0638518 7.14964 -89.8319 12.5745 -0.0467087 0.34108 0.903544 -0.0316513 0.342805 -21.6313 -0.147057 0.311277 -1.61866 -0.147056 0.311278 91.2099 -40.6287 -100.773 39.1245 -14.129 4.64649 -3.50247 -4.06442 -42.7044 -9.16511 -0.562851 1.8974 -95.5306 -47.3948 70.2245 -18.9176 14.2571 -3.22846 10.2787 14.9414 -42.3669 5.09776 0.541167 5.29737 0.672971 0.935394 1.52446 1.09315 0.631205 -2.56245 
-12.9741 98.2762 -89.8813 -106.735 -89.0731 -102.415 -172.092 10.5594 101.391 -20.7294 15.0584 0.413492 65.957 4.31675 1.63438 36.0622 6.99782 4.66512 175.181 10.743 94.9376 -28.7261 -5.02647 -1.60308 70.3909 -5.34518 -2.83679 37.1907 -1.64669 -7.73444 -0.138197 7.20478 -89.7703 12.4644 -0.165247 0.477825 0.793405 -0.144055 0.484619 -21.7413 -0.301216 0.406074 -1.72865 -0.301212 0.406068 90.8542 -40.7603 -101.346 39.3867 -12.8134 5.6915 -0.654455 0.0442423 -41.3273 -7.56694 -0.315363 -0.287554 -94.3418 -46.0339 71.6011 -15.6633 16.1123 -7.70231 11.911 14.0741 -45.69 4.53161 0.488298 5.2034 0.885074 0.439169 0.936607 1.55918 0.200021 -3.08534 
-14.2961 97.7617 -90.486 83.691 -88.2658 88.9244 -172.713 14.5472 103.078 -25.0328 18.2852 0.926687 65.6197 4.06904 1.54125 37.2631 7.89573 4.38285 175.424 13.0343 96.1696 -32.5488 -3.42743 -1.24479 70.9306 -5.41843 -2.89994 39.4941 -1.92784 -8.10145 -0.169587 7.26116 -89.7321 12.3517 -0.209758 0.558626 0.680661 -0.184972 0.567307 -21.8539 -0.367964 0.469756 -1.84124 -0.367948 0.469763 90.9528 -40.497 -101.249 39.668 -11.993 6.69621 2.74426 4.36906 -38.5437 -4.666 -0.071635 -2.67097 -93.8702 -44.9624 71.9982 -11.9134 16.8341 -12.9363 12.889 11.6874 -49.4683 6.59192 0.716289 5.90598 1.19896 -0.347311 0.978707 1.66941 -0.632414 -4.50257 
-15.6809 97.0331 -91.1435 84.6434 -84.8552 90.6806 -173.88 18.7125 104.608 -29.7054 22.1515 1.67844 65.2591 4.05641 1.73064 38.1858 8.32118 3.44957 175.283 15.4738 96.8329 -37.0967 -1.56656 -0.952526 71.6818 -5.53663 -2.98103 40.846 -1.89218 -7.38993 -0.248941 7.36426 -89.6876 12.146 -0.346991 0.661873 0.474907 -0.317524 0.676499 -22.0597 -0.52987 0.526987 -2.04704 -0.529866 0.526995 90.7915 -40.5056 -101.523 39.4362 -10.4447 7.94778 2.762 4.73107 -35.1719 -0.844535 0.0391629 -3.78192 -93.5461 -44.115 72.2444 -7.04639 16.5759 -19.1413 14.8112 10.055 -53.7535 7.66624 0.857651 6.38562 0.96078 -1.13651 1.9075 2.49454 -1.65994 -6.71695 
-17.0039 95.9575 -91.8416 85.6704 -82.1598 92.1596 -175.305 22.3513 105.702 -34.2028 25.1331 2.49727 64.5361 4.21578 2.77227 41.7724 10.2752 1.03056 175.205 18.1596 96.683 -42.4604 -0.678868 -1.09861 72.9326 -5.91677 -3.16916 41.1038 -1.9892 -7.71548 -0.238923 7.51403 -89.5713 11.8461 -0.273364 0.88413 0.174885 -0.234194 0.8953 -22.3586 -0.526443 0.761113 -2.34596 -0.526439 0.761103 90.2621 -41.2785 -102.211 38.5396 -8.37861 8.95425 0.849383 4.60121 -33.2501 1.58071 0.0792879 -2.41741 -92.9183 -42.7529 72.8198 -1.74836 15.1987 -26.7888 15.8316 8.41267 -56.9526 9.33203 1.04052 6.64097 0.187369 -2.00333 2.75722 4.17971 -2.8597 -9.26626 
